<?xml version="1.0" standalone="no"?>
<!DOCTYPE svg PUBLIC "-//W3C//DTD SVG 20010904//EN"
 "http://www.w3.org/TR/2001/REC-SVG-20010904/DTD/svg10.dtd">
<svg version="1.0" xmlns="http://www.w3.org/2000/svg"
 width="1024.000000pt" height="1024.000000pt" viewBox="0 0 1024.000000 1024.000000"
 preserveAspectRatio="xMidYMid meet">
<metadata>
Created by potrace 1.14, written by Peter Selinger 2001-2017
</metadata>
<g transform="translate(0.000000,1024.000000) scale(0.100000,-0.100000)"
fill="#000000" stroke="none">
<path d="M5245 10082 c-3 -3 -45 -7 -93 -8 -88 -2 -222 -11 -277 -18 -16 -3
-61 -7 -100 -10 -38 -4 -77 -9 -85 -11 -8 -2 -37 -7 -64 -10 -27 -3 -88 -12
-135 -21 -47 -10 -95 -18 -106 -20 -11 -1 -20 -3 -20 -4 0 -1 -11 -3 -25 -5
-38 -5 -301 -72 -383 -97 -40 -12 -74 -22 -77 -23 -3 0 -11 -4 -17 -8 -7 -5
-13 -6 -13 -2 0 3 -8 1 -18 -4 -11 -6 -30 -12 -43 -15 -19 -4 -101 -34 -274
-100 -5 -2 -12 -3 -15 -3 -3 0 -16 -6 -30 -13 -14 -8 -27 -15 -30 -15 -3 0
-27 -11 -55 -24 -27 -13 -86 -39 -130 -58 -44 -20 -81 -40 -83 -44 -2 -5 -10
-9 -18 -9 -7 0 -28 -8 -46 -18 -18 -10 -78 -43 -133 -72 -55 -29 -101 -57
-103 -62 -2 -4 -8 -8 -14 -8 -6 0 -35 -16 -64 -35 -29 -19 -55 -35 -58 -35
-16 0 -423 -288 -472 -335 -6 -5 -26 -22 -45 -37 -19 -14 -45 -36 -59 -48 -14
-12 -47 -40 -74 -63 -73 -63 -385 -374 -436 -436 -25 -29 -51 -60 -59 -68 -39
-40 -202 -245 -241 -303 -8 -12 -21 -29 -28 -36 -7 -8 -10 -14 -6 -14 4 0 1
-6 -8 -12 -14 -12 -133 -191 -188 -283 -13 -22 -29 -43 -34 -47 -6 -4 -7 -8
-3 -8 5 0 0 -12 -11 -27 -39 -57 -177 -323 -232 -448 -12 -27 -28 -63 -35 -80
-8 -16 -26 -59 -40 -95 -14 -36 -32 -78 -40 -95 -7 -16 -17 -43 -21 -60 -4
-16 -14 -46 -22 -65 -9 -19 -16 -39 -18 -45 -1 -5 -18 -59 -37 -120 -35 -107
-63 -205 -73 -255 -3 -14 -10 -43 -16 -65 -5 -22 -12 -47 -13 -55 -2 -8 -11
-48 -19 -87 -15 -68 -19 -90 -31 -163 -3 -16 -8 -45 -11 -62 -8 -46 -19 -126
-29 -218 -3 -30 -7 -64 -10 -75 -26 -124 -26 -791 0 -1000 3 -22 7 -62 10 -90
2 -27 9 -81 15 -120 6 -38 12 -86 15 -105 3 -20 8 -47 11 -60 4 -22 15 -75 29
-150 18 -94 48 -218 56 -233 5 -10 7 -22 4 -27 -4 -6 -2 -10 4 -10 5 0 8 -8 6
-17 -1 -10 1 -22 5 -28 4 -5 10 -23 14 -40 4 -16 18 -66 33 -110 14 -44 26
-84 28 -90 1 -5 7 -23 14 -40 7 -16 15 -42 18 -57 3 -16 9 -28 13 -28 3 0 7
-6 7 -12 0 -15 85 -228 133 -333 54 -120 190 -386 201 -395 4 -3 15 -22 25
-42 28 -56 126 -212 136 -216 4 -2 8 -9 8 -16 0 -7 8 -21 18 -32 10 -10 21
-26 24 -34 6 -15 186 -261 197 -270 4 -3 18 -21 31 -40 14 -19 32 -42 40 -51
8 -9 35 -40 60 -69 25 -30 63 -74 85 -99 52 -58 339 -347 385 -386 58 -50 174
-149 186 -160 7 -5 24 -19 40 -30 15 -11 60 -46 100 -77 41 -32 78 -58 84 -58
5 0 10 -4 10 -8 0 -4 15 -16 33 -27 17 -10 40 -26 50 -35 9 -9 30 -23 45 -31
15 -8 33 -19 39 -26 7 -6 60 -40 118 -75 58 -34 118 -71 133 -80 15 -9 47 -27
72 -39 25 -13 71 -38 103 -55 31 -18 57 -31 57 -28 0 3 12 -4 26 -15 15 -12
30 -21 34 -21 4 0 52 -21 106 -46 123 -57 143 -65 224 -97 36 -14 79 -31 95
-38 17 -7 35 -13 40 -15 6 -2 55 -19 111 -38 107 -37 333 -105 374 -112 14 -3
37 -9 52 -15 15 -6 30 -9 35 -6 4 2 19 0 33 -6 14 -5 32 -11 40 -12 8 -1 62
-12 120 -23 58 -12 121 -24 140 -26 42 -6 175 -25 210 -31 25 -3 105 -11 215
-21 33 -3 98 -7 145 -9 47 -1 87 -4 90 -5 3 -1 10 -1 15 0 21 5 104 2 114 -5
6 -3 11 -2 11 4 0 7 8 7 25 1 14 -5 25 -6 25 -2 0 4 23 7 50 7 28 0 50 -4 50
-8 0 -5 6 -5 12 -1 7 5 42 9 78 10 77 3 206 12 270 19 25 2 68 7 95 10 28 3
67 7 87 9 21 3 50 7 65 10 15 3 43 8 61 11 17 3 47 8 65 11 17 4 39 7 47 9 8
1 31 5 50 10 19 4 44 9 55 9 11 1 25 4 30 8 6 3 26 9 45 12 37 6 52 9 115 26
22 6 48 12 57 15 51 12 170 47 216 64 28 11 52 17 52 14 0 -3 6 0 13 6 8 6 17
8 20 4 4 -3 7 0 7 7 0 7 3 11 6 7 6 -6 49 8 119 38 17 7 41 16 55 20 14 4 45
17 70 27 25 11 61 27 80 36 19 8 90 41 157 73 68 33 127 59 133 59 5 0 10 4
10 9 0 5 15 15 34 21 19 6 36 14 38 18 2 4 23 18 48 31 75 40 240 142 328 203
45 32 87 58 92 58 4 0 10 4 12 8 2 5 30 29 63 53 33 24 69 52 80 61 11 9 63
51 115 94 52 43 117 98 145 124 80 72 336 331 385 389 25 29 50 58 57 65 27
30 90 104 113 135 14 17 35 44 48 59 12 15 39 51 59 80 20 28 40 52 45 52 4 0
8 5 8 11 0 10 13 29 60 86 6 7 10 15 10 18 0 3 22 35 48 72 27 38 57 84 68
103 10 19 27 43 37 54 9 11 17 26 17 33 0 7 4 13 9 13 5 0 11 8 14 18 6 19 38
74 48 82 3 3 8 10 10 15 11 28 104 191 112 196 5 3 8 9 7 13 -2 10 104 220
115 228 6 4 6 8 2 8 -5 0 0 15 10 32 40 68 46 61 -125 147 -86 43 -184 93
-217 110 -33 17 -65 31 -71 31 -7 0 -14 3 -16 8 -1 4 -61 36 -133 72 -71 35
-141 72 -155 81 -14 9 -28 17 -33 18 -6 1 -99 47 -232 115 -27 14 -55 26 -62
26 -6 0 -13 4 -15 8 -1 4 -129 71 -283 149 -154 78 -354 179 -445 224 -91 46
-168 88 -172 94 -4 5 -8 7 -8 3 0 -4 -15 1 -32 11 -18 10 -148 76 -288 147
-140 71 -256 132 -258 137 -2 4 -9 7 -16 7 -11 0 -64 25 -96 45 -8 5 -17 10
-20 10 -3 1 -43 21 -90 45 -47 24 -105 53 -130 64 -25 11 -47 23 -50 26 -3 4
-33 19 -67 35 -35 16 -63 32 -63 37 0 4 -3 7 -7 6 -10 -3 -227 105 -231 115
-2 4 -8 5 -13 1 -5 -3 -9 0 -9 6 0 6 -4 8 -10 5 -6 -3 -10 -1 -10 6 0 7 -3 10
-6 7 -3 -4 -33 10 -67 29 -34 19 -67 36 -73 37 -6 1 -23 10 -37 19 -15 10 -27
14 -27 10 0 -5 -4 -3 -8 2 -4 6 -55 35 -114 64 -59 30 -105 58 -102 63 5 8 25
19 104 60 14 7 27 15 30 19 3 3 39 25 80 48 41 23 120 69 175 102 55 33 112
65 128 72 15 6 27 15 27 19 0 4 4 8 9 8 4 0 61 32 125 70 65 39 119 70 121 70
4 0 73 41 130 78 11 6 27 15 35 19 8 4 66 38 129 75 62 37 116 68 118 68 2 0
29 16 59 35 30 19 58 35 63 35 5 0 16 6 23 13 14 13 43 30 93 56 16 9 32 18
35 21 3 3 14 10 25 16 56 31 71 40 77 49 4 6 8 6 8 1 0 -5 8 -2 18 6 15 14
130 82 262 156 25 14 47 29 48 34 2 4 7 6 12 3 4 -3 13 2 20 10 7 8 19 15 26
15 8 0 14 4 14 8 0 4 12 13 28 19 15 7 34 17 42 22 21 14 194 116 211 124 8 4
32 19 54 32 22 14 48 28 58 32 9 3 17 9 17 14 0 5 4 9 10 9 5 0 87 46 182 101
95 56 193 113 218 127 25 14 47 28 50 31 3 3 21 14 40 25 50 27 93 51 190 109
83 49 111 65 187 108 20 11 52 31 72 45 20 13 39 24 43 24 4 0 36 18 70 40 35
22 68 40 75 40 6 0 13 3 15 8 2 4 36 27 76 50 39 24 72 45 72 48 0 3 -11 24
-24 47 -13 23 -36 65 -51 92 -16 28 -46 78 -67 113 -21 34 -38 65 -38 68 0 2
-5 10 -10 17 -6 7 -48 71 -95 142 -133 204 -148 225 -157 225 -4 0 -8 4 -8 10
0 9 -118 168 -174 235 -14 17 -35 41 -46 55 -131 162 -434 476 -579 600 -35
30 -72 62 -81 71 -30 29 -289 228 -320 246 -17 9 -30 21 -30 25 0 4 -4 8 -8 8
-5 0 -46 25 -93 56 -99 66 -274 169 -344 204 -27 14 -52 27 -55 31 -3 3 -23
13 -45 23 -22 11 -84 41 -139 67 -54 27 -102 49 -106 49 -4 0 -29 10 -56 22
-27 11 -51 21 -54 21 -3 -1 -21 7 -40 17 -19 9 -87 34 -150 56 -63 21 -117 41
-120 44 -3 3 -12 6 -20 6 -8 1 -62 15 -120 32 -58 17 -120 34 -139 37 -19 3
-38 8 -43 11 -4 3 -18 7 -30 9 -13 3 -54 12 -93 20 -38 8 -83 17 -100 20 -16
3 -68 12 -115 20 -47 8 -105 17 -130 20 -83 11 -132 16 -165 19 -18 2 -38 7
-44 10 -6 4 -11 2 -11 -4 0 -6 -5 -8 -10 -5 -11 7 -129 16 -235 19 -33 0 -63
6 -67 11 -5 6 -8 6 -8 -1 0 -12 -29 -12 -48 0 -6 4 -12 3 -12 -3 0 -7 -8 -7
-25 -1 -16 6 -25 6 -25 0 0 -6 -9 -6 -25 0 -14 5 -25 6 -25 1 0 -4 -20 -5 -45
-1 -25 4 -47 4 -50 2z m368 -582 c19 -4 41 -4 48 1 7 4 18 5 24 1 11 -7 12 -7
120 -16 39 -3 117 -13 175 -21 58 -9 113 -17 123 -18 9 -1 17 -4 17 -7 0 -3
18 -6 41 -7 119 -7 743 -193 783 -233 6 -6 15 -10 22 -10 7 0 34 -10 61 -22
26 -12 51 -21 56 -20 4 1 7 -2 7 -8 0 -6 3 -9 8 -8 10 3 183 -82 205 -100 9
-8 17 -12 17 -8 0 4 13 -2 29 -13 16 -12 32 -21 36 -21 10 0 170 -98 273 -167
51 -35 97 -63 102 -63 6 0 10 -3 10 -7 0 -5 17 -19 37 -33 20 -14 41 -30 47
-36 6 -6 18 -15 27 -20 22 -12 87 -64 113 -90 12 -11 29 -25 37 -30 51 -30
353 -321 464 -448 33 -37 65 -73 70 -80 44 -49 113 -136 173 -216 40 -52 75
-99 80 -105 41 -51 121 -179 117 -185 -3 -5 -31 -24 -63 -42 -31 -18 -65 -37
-74 -43 -9 -5 -57 -33 -105 -61 -48 -28 -115 -66 -148 -86 -33 -19 -71 -41
-85 -49 -14 -8 -27 -16 -30 -19 -3 -3 -22 -14 -42 -25 -107 -58 -196 -110
-217 -126 -13 -10 -27 -16 -32 -13 -5 3 -9 2 -9 -3 0 -4 -21 -19 -47 -33 -27
-13 -50 -27 -53 -30 -5 -5 -131 -79 -209 -122 -20 -11 -40 -24 -45 -29 -17
-16 -23 -11 -78 63 -63 86 -65 90 -142 182 -65 78 -300 313 -361 361 -21 17
-47 38 -59 48 -12 9 -48 38 -81 63 -33 25 -67 51 -77 59 -9 7 -18 11 -21 9 -2
-2 -12 5 -22 16 -10 11 -24 20 -32 20 -7 0 -13 4 -13 8 0 5 -12 15 -27 23 -15
8 -64 35 -108 60 -115 65 -233 120 -365 168 -63 24 -123 47 -132 52 -10 5 -26
9 -35 9 -10 0 -38 7 -63 16 -38 13 -110 30 -255 59 -16 3 -50 8 -75 10 -25 3
-56 7 -70 10 -79 16 -507 27 -516 13 -2 -3 -18 -3 -34 2 -16 5 -32 5 -34 1 -3
-4 -24 -8 -48 -10 -24 -1 -59 -4 -78 -7 -19 -3 -51 -7 -70 -9 -19 -2 -46 -7
-60 -10 -14 -3 -41 -8 -60 -11 -19 -3 -43 -7 -52 -10 -10 -3 -30 -7 -45 -10
-16 -3 -55 -12 -88 -21 -33 -8 -64 -16 -70 -18 -5 -1 -17 -5 -25 -8 -17 -6
-150 -48 -165 -52 -5 -1 -21 -7 -35 -12 -14 -6 -49 -21 -79 -33 -104 -41 -278
-125 -351 -169 -19 -11 -44 -25 -55 -30 -11 -5 -57 -34 -103 -65 -45 -31 -85
-56 -88 -56 -3 0 -11 -6 -19 -12 -29 -28 -56 -48 -64 -48 -5 0 -11 -3 -13 -7
-1 -5 -28 -28 -58 -53 -162 -131 -301 -267 -428 -418 -66 -79 -162 -210 -162
-222 0 -5 -5 -10 -10 -10 -6 0 -14 -8 -17 -17 -7 -18 -66 -111 -83 -130 -5 -7
-10 -19 -10 -27 0 -8 -4 -16 -9 -18 -9 -3 -151 -276 -151 -291 0 -4 -11 -32
-24 -60 -21 -46 -38 -92 -41 -107 0 -3 -6 -15 -13 -27 -7 -13 -10 -23 -7 -23
3 0 1 -9 -5 -21 -6 -11 -13 -28 -15 -37 -2 -9 -13 -48 -25 -87 -26 -88 -60
-229 -65 -267 -2 -16 -6 -42 -10 -56 -3 -15 -7 -43 -9 -62 -16 -139 -25 -200
-32 -211 -3 -5 -1 -9 4 -9 5 0 6 -17 2 -39 -6 -32 -6 -426 0 -426 2 0 8 -47
14 -115 6 -66 14 -126 21 -160 3 -14 8 -36 10 -50 16 -83 52 -228 83 -327 6
-17 8 -34 4 -37 -3 -3 -1 -6 5 -6 6 0 13 -13 16 -30 21 -101 175 -429 284
-600 32 -51 63 -99 68 -108 15 -25 97 -136 105 -142 4 -3 11 -12 16 -21 45
-80 340 -381 464 -474 15 -11 34 -27 42 -35 9 -8 26 -22 38 -30 12 -8 44 -31
70 -50 58 -42 65 -47 155 -105 39 -24 76 -45 83 -45 6 0 12 -3 12 -7 0 -5 10
-13 23 -19 12 -6 72 -36 132 -66 61 -31 121 -59 135 -63 14 -4 30 -12 36 -17
14 -10 218 -87 252 -94 13 -2 42 -11 65 -18 74 -23 121 -36 147 -40 14 -3 25
-5 25 -6 0 -2 15 -5 60 -13 17 -3 41 -8 55 -12 14 -3 41 -7 60 -10 19 -3 53
-8 75 -11 265 -38 617 -37 845 2 19 3 46 7 60 9 14 2 50 9 80 15 30 6 66 13
80 16 14 2 36 8 50 13 45 16 185 52 194 51 5 -1 12 2 15 7 3 4 33 17 66 28 33
11 79 30 103 42 23 12 42 20 42 18 0 -3 17 3 38 14 20 10 40 19 44 20 5 1 25
11 45 22 21 12 63 35 93 52 30 16 67 38 82 48 14 11 29 19 33 19 4 0 30 16 56
35 27 19 53 35 58 35 5 0 11 3 13 8 2 4 37 32 78 62 41 30 109 84 150 119 125
107 363 354 394 410 5 9 15 20 23 24 7 4 13 15 13 22 0 8 3 15 8 15 10 0 122
155 122 169 0 6 4 11 8 11 5 0 15 12 23 27 8 16 18 33 22 38 4 6 13 18 20 28
12 17 27 11 227 -91 118 -60 303 -154 410 -209 107 -54 202 -103 210 -108 8
-5 21 -10 29 -12 8 -1 18 -8 22 -15 5 -7 9 -10 9 -5 0 4 18 -4 40 -18 22 -14
40 -22 40 -19 0 4 6 2 13 -4 17 -14 135 -73 143 -71 4 0 10 -3 13 -8 3 -5 19
-14 34 -21 15 -7 26 -15 24 -20 -116 -193 -187 -305 -199 -310 -5 -2 -8 -10
-8 -18 0 -8 -4 -14 -10 -14 -5 0 -10 -5 -10 -10 0 -6 -5 -16 -10 -23 -6 -7
-41 -53 -78 -102 -99 -133 -171 -221 -229 -282 -13 -13 -23 -26 -23 -28 0 -3
-19 -25 -42 -49 -24 -24 -64 -65 -89 -92 -65 -69 -180 -177 -270 -254 -105
-90 -118 -101 -164 -135 -22 -16 -44 -36 -48 -42 -4 -7 -14 -13 -22 -13 -7 0
-15 -4 -17 -8 -1 -4 -25 -23 -53 -42 -27 -19 -52 -37 -55 -40 -3 -3 -34 -24
-70 -47 -36 -24 -70 -47 -75 -51 -6 -5 -15 -11 -20 -13 -6 -2 -53 -30 -107
-61 -53 -32 -101 -58 -106 -58 -6 0 -12 -4 -14 -8 -4 -10 -223 -117 -353 -172
-55 -24 -106 -47 -112 -53 -7 -5 -13 -7 -13 -4 0 4 -30 -5 -67 -19 -96 -37
-243 -84 -278 -91 -16 -2 -36 -10 -42 -15 -7 -6 -13 -8 -13 -5 0 3 -15 1 -32
-4 -18 -6 -44 -12 -58 -15 -14 -3 -41 -9 -60 -14 -30 -7 -79 -18 -215 -46 -11
-2 -38 -6 -60 -9 -22 -3 -65 -9 -95 -14 -30 -5 -58 -7 -62 -4 -5 2 -14 1 -20
-4 -7 -4 -26 -8 -43 -9 -16 -1 -66 -5 -110 -9 -90 -8 -615 -10 -657 -3 -16 3
-28 1 -28 -5 0 -6 -4 -6 -12 1 -7 5 -26 10 -43 10 -16 0 -32 1 -35 2 -3 1 -25
4 -50 6 -25 2 -65 6 -90 9 -25 4 -61 8 -80 10 -19 2 -35 4 -35 5 0 2 -12 4
-84 14 -23 3 -46 8 -50 10 -3 2 -23 7 -44 10 -37 6 -192 41 -232 52 -39 11
-64 17 -92 21 -18 3 -33 10 -33 16 0 6 -3 8 -6 4 -3 -3 -23 1 -45 8 -22 8 -40
14 -42 13 -1 -1 -33 9 -72 22 -38 13 -70 21 -71 19 0 -2 -8 2 -16 9 -9 7 -24
15 -34 17 -29 7 -106 34 -139 50 -16 8 -75 33 -130 56 -55 24 -103 48 -107 53
-4 6 -8 7 -8 3 0 -10 -333 164 -350 182 -3 4 -21 15 -40 25 -132 71 -418 278
-589 425 -239 206 -498 485 -671 721 -30 41 -59 78 -65 82 -6 5 -6 8 0 8 7 0
7 3 0 8 -16 11 -115 159 -115 171 0 6 -4 11 -10 11 -5 0 -10 7 -10 15 0 8 -4
15 -9 15 -5 0 -11 8 -14 17 -4 10 -18 36 -31 58 -14 22 -31 51 -37 65 -5 13
-13 27 -17 30 -4 3 -27 46 -52 95 -25 50 -47 92 -51 95 -3 3 -11 21 -19 40 -7
19 -31 73 -53 119 -22 46 -40 90 -40 98 0 7 -4 13 -9 13 -4 0 -7 3 -6 7 1 5
-17 57 -40 116 -41 105 -82 224 -86 250 -1 6 -5 17 -8 23 -4 6 -9 21 -12 35
-5 30 -53 212 -67 257 -6 19 -8 36 -5 39 3 3 1 13 -4 22 -4 9 -11 37 -15 61
-4 25 -8 47 -11 51 -2 4 -6 31 -10 60 -3 30 -8 56 -9 59 -2 3 -6 33 -10 65 -3
33 -8 71 -12 85 -3 14 -7 48 -8 75 -2 28 -7 79 -11 115 -17 134 -9 707 11 811
2 11 7 48 10 82 3 35 7 71 9 82 10 55 19 113 22 140 4 35 71 342 80 365 6 15
34 115 38 135 1 6 4 15 8 20 3 6 9 27 13 48 4 20 11 40 16 43 5 3 9 12 9 20 0
30 142 387 185 465 8 14 12 29 8 33 -3 3 -1 6 5 6 9 0 25 32 25 50 0 3 11 22
24 43 13 20 20 37 16 37 -5 0 -3 4 3 8 6 4 30 43 53 87 55 102 114 199 124
203 4 2 7 8 7 13 0 17 237 355 284 405 6 7 20 22 30 35 133 167 341 379 526
539 41 36 77 68 80 71 3 3 32 25 65 50 32 24 67 51 76 59 37 32 54 45 70 55
10 6 82 54 161 107 78 53 145 96 148 95 3 -1 19 8 35 19 17 12 66 41 110 64
44 24 83 48 86 53 3 5 10 9 15 9 5 0 55 23 111 49 56 27 107 49 112 49 6 0 11
4 11 10 0 5 3 9 8 8 4 -1 18 3 32 9 106 45 150 61 150 55 0 -4 4 -2 8 4 7 11
111 50 125 46 4 -1 7 3 7 8 0 5 3 9 8 9 4 -1 10 0 15 1 4 1 10 3 15 4 4 1 43
14 87 28 68 23 275 81 333 93 9 2 50 11 89 19 125 27 160 33 283 51 96 13 200
24 283 29 26 2 49 5 52 7 8 8 512 7 548 -1z"/>
<path d="M8125 6180 l-30 -5 1 -970 0 -970 265 0 264 0 2 433 c1 238 4 439 7
447 4 11 11 13 30 5 16 -6 27 -6 31 0 4 7 13 7 24 0 12 -6 22 -5 28 1 7 7 13
7 17 1 4 -7 17 -7 36 -2 19 5 30 5 30 -1 0 -6 5 -7 11 -3 6 3 32 7 57 9 181 9
343 137 401 316 22 67 24 84 27 186 2 90 -4 137 -24 193 -3 8 -7 24 -9 34 -7
39 -75 148 -123 196 -73 74 -153 113 -260 127 -57 7 -745 10 -785 3z"/>
</g>
</svg>
